<svg xmlns="http://www.w3.org/2000/svg" width="330.13" height="79.334" viewBox="0 0 330.13 79.334">
  <defs>
    <linearGradient id="logo-gradient" x1="20%" y1="0%" x2="50%" y2="100%">
      <stop offset="0%" stop-color="#ffcbf2">
        <animate attributeName="stop-color"
          values="#ffcbf2; #c0fdff; #ffccd5; #ffcbf2;"
          dur="8s"
          repeatCount="indefinite"></animate>
      </stop>

      <stop offset="100%" stop-color="#c0fdff">
        <animate attributeName="stop-color" values="#c0fdff; #ffcbf2; #ffccd5; #c0fdff" dur="8s"
          repeatCount="indefinite"></animate>
      </stop>
    </linearGradient>

  </defs>
  <g id="Logotype" transform="translate(-720 -712.666)">
    <path id="Path_14" data-name="Path 14"
      d="M32.794,1.18A40.037,40.037,0,0,1,17.184-1.61,23.2,23.2,0,0,1,6.837-9.756,23.954,23.954,0,0,1,2.816-22.773H16.542a11.928,11.928,0,0,0,2.5,6.7,13.117,13.117,0,0,0,5.709,4.016,22.3,22.3,0,0,0,7.919,1.335,21.506,21.506,0,0,0,8.017-1.387,12.729,12.729,0,0,0,5.429-3.871,9.1,9.1,0,0,0,1.956-5.8,7.161,7.161,0,0,0-1.749-4.959,13.581,13.581,0,0,0-4.86-3.292,47.7,47.7,0,0,0-7.282-2.37l-8.758-2.277Q15.911-37.1,10.409-42.1t-5.5-13.317A19.835,19.835,0,0,1,8.6-67.352,24.324,24.324,0,0,1,18.68-75.308a35.2,35.2,0,0,1,14.466-2.847A34.191,34.191,0,0,1,47.565-75.3a23.693,23.693,0,0,1,9.73,7.867,20.327,20.327,0,0,1,3.675,11.517h-13.5a10.2,10.2,0,0,0-4.384-7.661q-3.877-2.733-10.129-2.733a19.435,19.435,0,0,0-7.453,1.294,10.94,10.94,0,0,0-4.793,3.571,8.574,8.574,0,0,0-1.667,5.2,7.3,7.3,0,0,0,1.946,5.232,14.123,14.123,0,0,0,4.963,3.3,46.363,46.363,0,0,0,6.175,2.049l7.185,1.843a52.158,52.158,0,0,1,8.4,2.764A30.562,30.562,0,0,1,55-36.717a19.293,19.293,0,0,1,5.119,6.33,19.057,19.057,0,0,1,1.884,8.731,20.881,20.881,0,0,1-3.457,11.92A22.681,22.681,0,0,1,48.57-1.7,38.894,38.894,0,0,1,32.794,1.18Zm56.66-78.3V0H75.5V-77.119Z"
      transform="translate(717.184 790.82)" fill="url('#logo-gradient')" />
    <path id="Path_15" data-name="Path 15"
      d="M5.59-77.119V0H18.074L54.366-52.524h.7V0H69.024V-77.119H56.5L20.227-24.575h-.683V-77.119Z"
      transform="translate(817.515 791)" fill="url('#logo-gradient')" />
    <path id="Path_16" data-name="Path 16"
      d="M5.59,0V-77.119H19.544v32.67H55.3v-32.67H69.252V0H55.3V-32.731H19.544V0Z"
      transform="translate(896.748 791)" fill="url('#logo-gradient')" />
    <path id="Path_17" data-name="Path 17"
      d="M15.962,0l20.02-60.68h.807L56.851,0H72.13L44.988-77.119h-17.2L.58,0Z"
      transform="translate(978 791)" fill="url('#logo-gradient')" />
  </g>
</svg>